<svg width="22" height="22" viewBox="0 0 20 20" fill="none" xmlns="http://www.w3.org/2000/svg">
<path d="M12.52 16.6302C11.71 16.8402 10.87 16.9402 10 16.9402C6.73 16.9402 3.8 15.4102 1.8 12.9902C0.4 11.3002 0.4 8.69018 1.8 7.01018C1.96 6.81018 2.14 6.62018 2.32 6.43018" stroke="#C2C3CB" stroke-width="1.5" stroke-linecap="round" stroke-linejoin="round"/>
<path d="M18.2001 12.9901C17.4001 13.9501 16.4501 14.7701 15.4001 15.4101L4.59009 4.59006C6.18009 3.61006 8.02009 3.06006 10.0001 3.06006C13.2701 3.06006 16.2001 4.59006 18.2001 7.01006C19.6001 8.69006 19.6001 11.3101 18.2001 12.9901Z" stroke="#C2C3CB" stroke-width="1.5" stroke-linecap="round" stroke-linejoin="round"/>
<path d="M13.0801 9.99992C13.0801 10.8499 12.7301 11.6199 12.1801 12.1799L7.82007 7.81992C8.37007 7.25992 9.15007 6.91992 10.0001 6.91992C11.7101 6.91992 13.0801 8.28992 13.0801 9.99992Z" stroke="#C2C3CB" stroke-width="1.5" stroke-linecap="round" stroke-linejoin="round"/>
<path d="M0.75 0.75L4.59 4.59L7.82 7.82L12.18 12.18L15.41 15.41L19.25 19.25" stroke="#C2C3CB" stroke-width="1.5" stroke-linecap="round" stroke-linejoin="round"/>
</svg>
