<svg width="19" height="21" viewBox="0 0 19 21" fill="none" xmlns="http://www.w3.org/2000/svg">
<path d="M0.916748 16.9123V12.756C0.916748 10.9435 2.3855 9.46436 4.20842 9.46436H14.8021C16.6146 9.46436 18.0938 10.9331 18.0938 12.756V16.9123C18.0938 18.7248 16.6251 20.2039 14.8021 20.2039H4.20842C2.3855 20.2039 0.916748 18.7352 0.916748 16.9123Z" stroke="#C2C3CB" stroke-width="1.5625" stroke-linecap="round" stroke-linejoin="round"/>
<path d="M4.1355 9.47478V6.29769C4.1355 3.33936 6.54174 0.933105 9.50007 0.933105C12.4584 0.933105 14.8647 3.33936 14.8647 6.29769V9.47478H4.1355Z" stroke="#C2C3CB" stroke-width="1.5625" stroke-linecap="round" stroke-linejoin="round"/>
<path d="M9.5 16.9854V14.2979" stroke="#C2C3CB" stroke-width="1.5625" stroke-linecap="round" stroke-linejoin="round"/>
<path d="M9.50016 14.8394C10.0927 14.8394 10.5731 14.3591 10.5731 13.7665C10.5731 13.174 10.0927 12.6936 9.50016 12.6936C8.90761 12.6936 8.42725 13.174 8.42725 13.7665C8.42725 14.3591 8.90761 14.8394 9.50016 14.8394Z" stroke="#C2C3CB" stroke-width="1.5625" stroke-linecap="round" stroke-linejoin="round"/>
</svg>
