<svg width="20" height="21" viewBox="0 0 20 21" fill="none" xmlns="http://www.w3.org/2000/svg">
<path d="M9.67998 8.81333C11.8376 8.81333 13.5866 7.06426 13.5866 4.90667C13.5866 2.74907 11.8376 1 9.67998 1C7.52239 1 5.77332 2.74907 5.77332 4.90667C5.77332 7.06426 7.52239 8.81333 9.67998 8.81333Z" fill="#292C35" stroke="#C2C3CB" stroke-width="2" stroke-linecap="round" stroke-linejoin="round"/>
<path d="M1.78662 19.6668V17.4402C1.78662 14.8402 3.89329 12.7468 6.47996 12.7468H13.5066C16.1066 12.7468 18.2 14.8535 18.2 17.4402V19.6668" fill="#292C35"/>
<path d="M1.78662 19.6668V17.4402C1.78662 14.8402 3.89329 12.7468 6.47996 12.7468H13.5066C16.1066 12.7468 18.2 14.8535 18.2 17.4402V19.6668" stroke="#C2C3CB" stroke-width="2" stroke-linecap="round" stroke-linejoin="round"/>
</svg>
