<svg className='onBoardingSVGS' width="331" height="301" viewBox="0 0 320 290" preserveAspectRatio="xMidYMid meet" style="width: 100%; height: auto;" xmlns="http://www.w3.org/2000/svg">
  <path d="M119.707 224.81H129.957V265.808H119.707V224.81ZM90.0549 208.016H99.939V248.026H90.0549V208.016ZM64.7957 194.186H75.0458V235.183H64.7957V194.186ZM189.994 224.81H200.244V265.808H189.994V224.81ZM220.378 208.016H229.896V248.026H220.378V208.016ZM244.905 194.186H255.156V235.183H244.905V194.186ZM290.299 228.268H315.192V241.604H290.299V228.268ZM290.299 248.026H315.192V261.856H290.299V248.026Z" fill="#F0AF56"/>
  <path d="M312.457 130.481C316.772 127.918 320 121.151 320 114.743V101.07C320 94.6683 317.406 87.9015 313.091 85.3328L176.739 3.95472C172.458 1.40284 167.022 0 161.13 0C155.238 0 149.719 1.40284 145.439 3.95176L8.16183 85.3328C3.84732 87.9015 0 94.6688 0 101.07V114.743C0 121.145 3.0832 127.912 7.39808 130.481L44.6682 152.771V211.49C44.6682 221.442 50.8427 232.319 57.6967 236.254L145.16 286.203C149.572 288.732 155.433 289.997 161.093 289.997C166.753 289.997 172.514 288.732 176.926 286.203L263.547 236.25C270.401 232.318 275.332 221.441 275.332 211.49V152.771L297.3 139.373V189.459C295.103 190.855 292.54 194.563 292.54 198.954V206.587C290.343 210.859 284.851 217.931 284.851 225.93V266.395C284.851 279.409 292.776 290 302.426 290C312.075 290 320 279.409 320 266.395V225.93C320 217.93 317.803 210.859 312.311 206.587V198.954C312.311 194.563 312.311 190.855 307.551 189.459V133.417L312.457 130.481ZM310.481 266.395C310.481 271.973 306.928 276.511 302.792 276.511C298.656 276.511 295.103 271.973 295.103 266.395V225.93C295.103 220.352 298.656 215.814 302.792 215.814C306.928 215.814 310.481 220.352 310.481 225.93V266.395ZM10.2517 114.743V101.07C10.2517 99.9735 11.6463 98.1031 12.3669 97.675L149.304 16.2904C152.298 14.5089 156.701 13.4882 161.167 13.4882C165.633 13.4882 169.972 14.5089 172.966 16.2939L309.262 97.675C309.982 98.1031 310.481 99.9735 310.481 101.07V114.743C310.481 115.817 309.999 117.72 309.294 118.138L172.821 199.523C169.827 201.304 165.656 202.325 161.19 202.325C156.725 202.325 152.501 201.305 149.507 199.519L12.3409 118.138C11.6203 117.71 10.2517 115.839 10.2517 114.743ZM265.08 211.49C265.08 216.11 262.769 221.998 259.556 223.839L172.218 273.788C170.304 274.888 167.323 275.612 165.126 276.042V235.107H154.874V276.042C152.677 275.612 150.684 274.888 148.769 273.788L61.3836 223.842C58.1704 221.998 54.9199 216.11 54.9199 211.49V158.726L144.841 211.859C149.121 214.411 155.063 215.814 160.954 215.814C166.846 215.814 172.003 214.411 176.284 211.862L265.08 158.726V211.49Z" fill="#FF6369"/>
  <path d="M154.85 35.6292H165.101V177.391H154.85V35.6292ZM24.8932 99.348H145.332V113.178H24.8932V99.348ZM174.619 99.348H295.058V113.178H174.619V99.348ZM185.235 140.345H202.44V127.503H174.619V164.549H185.235V140.345ZM117.511 140.345H134.716V164.549H145.332V127.503H117.511V140.345ZM212.69 127.503H232.459V140.345H212.69V127.503ZM87.4923 127.503H107.26V140.345H87.4923V127.503Z" fill="#FF6369"/>
</svg>
