<svg className='onBoardingSVGS' width="328" height="302" viewBox="0 0 328 302" fill="none" xmlns="http://www.w3.org/2000/svg">
<path fillRule="evenodd" clipRule="evenodd" d="M209.017 86.6645C120.31 40.7921 27.0163 89.2488 11.3974 145.027C0.967676 182.276 14.3892 219.623 53.9126 248.741C48.3205 268.007 46.6426 278.609 42.1689 294C62.408 287.118 86.3273 275.541 100.696 270.134C101.565 269.807 164.886 292.397 222.509 251.431C284.726 207.2 277.607 122.131 209.017 86.6645V86.6645Z" stroke="#FF6369" stroke-width="14.6594" stroke-miterlimit="1.5" stroke-linecap="round" stroke-linejoin="round"/>
<path fillRule="evenodd" clipRule="evenodd" d="M217.419 201.526C210.359 208.852 198.144 217.735 186.54 220.789C168.22 225.611 151.873 221.801 129.981 209.926C94.8361 190.862 57.7083 165.528 78.0891 133.607C80.6165 129.647 83.4521 125.796 87.2029 122.478C96.1333 127.969 111.886 138.759 120.36 144.695C118.379 148.856 115.371 152.437 118.289 159.835C120.319 164.983 126.428 168.504 131.342 172.019C144.252 181.262 165.414 195.285 179.634 180.021C192.217 187.354 204.313 194.794 217.419 201.526Z" stroke="#F0AF56" stroke-width="14.6594" stroke-miterlimit="1.5" stroke-linecap="round" stroke-linejoin="round"/>
<path d="M250.103 14.7695C242.417 29.2074 236.835 44.1447 229.995 58.8002" stroke="#F0AF56" stroke-width="8.93968" stroke-miterlimit="1.5" stroke-linecap="round" stroke-linejoin="round"/>
<path d="M304.084 5.24624C282.528 24.3219 263.27 45.5515 245.625 66.9444" stroke="#F0AF56" stroke-width="8.93968" stroke-miterlimit="1.5" stroke-linecap="round" stroke-linejoin="round"/>
<path d="M322.853 47.2878C302.007 53.3129 276.186 68.8956 257.112 79.0278" stroke="#F0AF56" stroke-width="8.93968" stroke-miterlimit="1.5" stroke-linecap="round" stroke-linejoin="round"/>
</svg>
