<svg width="52" height="51" viewBox="0 0 52 51" fill="none" xmlns="http://www.w3.org/2000/svg">
<circle cx="26.0795" cy="25.2477" r="25.2477" fill="white"/>
<path d="M25.4983 25.3124C26.0575 25.8698 26.8222 25.8698 27.3814 25.3124L34.5946 18.0195L35.9299 16.6607C35.4278 16.3936 34.8685 16.2427 34.2636 16.2427H18.6161C18.0112 16.2427 17.4519 16.3936 16.9498 16.6607L18.2851 18.0195L25.4983 25.3124Z" fill="#0677E8"/>
<path d="M22.9304 25.1723L16.9271 19.0871L15.6716 17.8213C15.2607 18.4135 15.0325 19.1219 15.0325 19.9V30.5839C15.0325 31.2342 15.2037 31.8497 15.489 32.3723C15.5004 32.3607 15.5004 32.3607 15.5118 32.3491L16.8129 31.0833L22.9304 25.1723Z" fill="#0677E8"/>
<path d="M28.8195 26.311L28.5912 26.5433C27.9749 27.1588 27.2102 27.4723 26.4341 27.4723C25.6695 27.4723 24.9048 27.1588 24.2885 26.5433L24.1401 26.3923L17.9769 32.3846L16.6987 33.6156C16.6873 33.6272 16.6758 33.6388 16.6644 33.6388C17.2237 34.022 17.8856 34.2427 18.6161 34.2427H34.2636C34.9826 34.2427 35.656 34.022 36.2153 33.6388L34.937 32.373L28.8195 26.311Z" fill="#0677E8"/>
<path d="M37.2199 17.8213L35.9644 19.0871L30.0295 25.0794L36.0785 31.0833L37.3911 32.3839C37.6878 31.8613 37.859 31.2342 37.859 30.5839V19.9C37.859 19.1219 37.6307 18.4135 37.2199 17.8213Z" fill="#0677E8"/>
</svg>
