<svg width="25" height="25" viewBox="0 0 25 25" fill="none" xmlns="http://www.w3.org/2000/svg">
<path d="M23.9141 9.71228H22.9415V9.66216H12.0745V14.4932H18.8983C17.9028 17.3055 15.2277 19.3243 12.0745 19.3243C8.07358 19.3243 4.82978 16.0796 4.82978 12.0777C4.82978 8.07575 8.07358 4.83108 12.0745 4.83108C13.9212 4.83108 15.6014 5.52796 16.8807 6.66629L20.2959 3.25011C18.1394 1.23978 15.2549 0 12.0745 0C5.40634 0 0 5.40779 0 12.0777C0 18.7476 5.40634 24.1554 12.0745 24.1554C18.7426 24.1554 24.1489 18.7476 24.1489 12.0777C24.1489 11.2679 24.0656 10.4774 23.9141 9.71228Z" fill="#0677E8"/>
</svg>
