<svg width="26" height="25" viewBox="0 0 26 25" fill="none" xmlns="http://www.w3.org/2000/svg">
<path fill-rule="evenodd" clip-rule="evenodd" d="M10.8724 0.608615C12.0084 -0.202845 13.5345 -0.202874 14.6705 0.608541L23.1806 6.6869C24.6637 7.74623 25.5439 9.45662 25.5439 11.2792V20.5447C25.5439 23.0053 23.5492 25 21.0886 25H17.6935C15.8891 25 14.4263 23.5372 14.4263 21.7328V19.9506C14.4263 19.4585 14.0274 19.0596 13.5352 19.0596H12.0077C11.5156 19.0596 11.1166 19.4585 11.1166 19.9506V21.7328C11.1166 23.5372 9.65382 25 7.84938 25H4.45533C1.99472 25 0 23.0053 0 20.5447V11.2791C0 9.45658 0.880142 7.74626 2.36316 6.68691L10.8724 0.608615ZM13.6347 2.05874C13.1183 1.68992 12.4247 1.68993 11.9083 2.05878L3.39903 8.13707C2.38434 8.86189 1.78213 10.0321 1.78213 11.2791V20.5447C1.78213 22.021 2.97897 23.2179 4.45533 23.2179H7.84938C8.66958 23.2179 9.33449 22.553 9.33449 21.7328V19.9506C9.33449 18.4743 10.5313 17.2774 12.0077 17.2774H13.5352C15.0116 17.2774 16.2084 18.4743 16.2084 19.9506V21.7328C16.2084 22.553 16.8733 23.2179 17.6935 23.2179H21.0886C22.5649 23.2179 23.7618 22.021 23.7618 20.5447V11.2792C23.7618 10.0322 23.1595 8.86191 22.1448 8.1371L13.6347 2.05874Z" fill="#9B9B9B"/>
</svg>
