<svg width="32" height="33" viewBox="0 0 32 33" fill="none" xmlns="http://www.w3.org/2000/svg">
<path fill-rule="evenodd" clip-rule="evenodd" d="M0 16.6145C0 15.9435 0.543886 15.3997 1.2148 15.3997H22.2714C22.9423 15.3997 23.4862 15.9435 23.4862 16.6145C23.4862 17.2854 22.9423 17.8293 22.2714 17.8293H1.2148C0.543886 17.8293 0 17.2854 0 16.6145Z" fill="#0777E8"/>
<path fill-rule="evenodd" clip-rule="evenodd" d="M14.9331 7.65659C15.4075 7.18218 16.1767 7.18218 16.6511 7.65659L24.6352 15.6407C25.1729 16.1784 25.1729 17.0501 24.6352 17.5878L16.6511 25.5719C16.1767 26.0464 15.4075 26.0464 14.9331 25.5719C14.4587 25.0975 14.4587 24.3284 14.9331 23.854L22.1728 16.6143L14.9331 9.37458C14.4587 8.90017 14.4587 8.131 14.9331 7.65659Z" fill="#0777E8"/>
<path fill-rule="evenodd" clip-rule="evenodd" d="M21.5962 1.49703C21.5962 0.826112 22.1401 0.282227 22.811 0.282227H30.2078C30.9682 0.282227 31.5846 0.898634 31.5846 1.659V31.5701C31.5846 32.3305 30.9682 32.9469 30.2078 32.9469H21.7312C21.0602 32.9469 20.5164 32.403 20.5164 31.7321C20.5164 31.0612 21.0602 30.5173 21.7312 30.5173H29.155V2.71183H22.811C22.1401 2.71183 21.5962 2.16795 21.5962 1.49703Z" fill="#0777E8"/>
</svg>
