<svg className='onBoardingSVGS' width="331" height="301" viewBox="0 0 331 301" fill="none" xmlns="http://www.w3.org/2000/svg">
<path fillRule="evenodd" clipRule="evenodd" d="M142.464 294.441C165.978 298.85 183.215 276.169 191.938 262.215C218.089 220.377 237.748 177.4 264.923 129.074C276.257 108.919 292.442 77.2221 282.226 51.3985C275.827 35.2243 240.096 28.2051 226.061 26.0153C196.183 21.3525 154.764 11.0676 126.634 25.9694C116.251 31.4707 108.963 45.9123 101.684 54.9638C71.8428 92.0772 49.1659 136.771 25.6634 178.451C12.3488 202.065 -3.19014 222.181 12.7707 249.276C19.3098 260.377 39.8743 267.543 50.6 271.409C80.6923 282.256 111.072 288.555 142.464 294.441Z" stroke="#FF6369" stroke-width="12" stroke-miterlimit="1.5" stroke-linecap="round" stroke-linejoin="round"/>
<path d="M12.5126 212.602C12.6092 230.52 29.7524 230.743 41.7142 235.77C74.9302 249.73 106.709 257.04 142.112 262.109C147.973 262.949 153.653 263.787 158.145 260.795C167.352 254.662 173.865 243.283 179.008 233.399C203.191 186.932 233.02 143.84 255.709 96.4408C261.587 84.1606 268.004 71.7578 272.424 58.7788C274.408 52.9528 274.42 45.4786 268.959 41.7119" stroke="#FF6369" stroke-width="12" stroke-miterlimit="1.5" stroke-linecap="round" stroke-linejoin="round"/>
<path d="M171.873 19.4258C171.333 22.6847 169.73 32.0678 171.955 34.9777C174.672 38.532 181 38.2216 184.86 38.786C193.861 40.1019 202.575 42.864 211.645 43.7248C215.09 44.0525 218.916 44.9851 222.258 43.6176C227.928 41.2963 231.853 33.6053 235.929 28.987" stroke="#FF6369" stroke-width="12" stroke-miterlimit="1.5" stroke-linecap="round" stroke-linejoin="round"/>
<path fillRule="evenodd" clipRule="evenodd" d="M141.782 183.206C125.711 183.165 90.5885 144.215 93.5728 118.344C95.674 100.138 111.141 88.842 125.699 95.0872C133.528 98.446 137.746 107.202 141.858 114.556C146.673 106.599 152.562 96.1425 161.366 93.0158C177.244 87.3767 191.912 100.204 193.515 119.78C195.565 144.803 156.778 183.244 141.782 183.206Z" stroke="#F0AF56" stroke-width="8" stroke-miterlimit="1.5" stroke-linecap="round" stroke-linejoin="round"/>
<path d="M178.081 93.8049C179.558 92.3426 181.049 90.8831 182.637 89.5559" stroke="#F0AF56" stroke-width="8" stroke-miterlimit="1.5" stroke-linecap="round" stroke-linejoin="round"/>
<path d="M132.935 100.626C134.99 99.1141 136.905 97.4336 138.876 95.8101" stroke="#F0AF56" stroke-width="8" stroke-miterlimit="1.5" stroke-linecap="round" stroke-linejoin="round"/>
<path d="M122.958 94.0879C125.012 92.5775 126.927 90.897 128.898 89.2725" stroke="#F0AF56" stroke-width="8" stroke-miterlimit="1.5" stroke-linecap="round" stroke-linejoin="round"/>
<path d="M190.278 106.77C192.332 105.258 194.247 103.579 196.218 101.954" stroke="#F0AF56" stroke-width="8" stroke-miterlimit="1.5" stroke-linecap="round" stroke-linejoin="round"/>
<path d="M193.246 126.092C195.301 124.58 197.216 122.901 199.187 121.277" stroke="#F0AF56" stroke-width="8" stroke-miterlimit="1.5" stroke-linecap="round" stroke-linejoin="round"/>
<path d="M184.993 146.507C187.292 145.46 189.485 144.218 191.724 143.042" stroke="#F0AF56" stroke-width="8" stroke-miterlimit="1.5" stroke-linecap="round" stroke-linejoin="round"/>
<path d="M168.793 166.473C171.093 165.134 184.351 158.044 186.576 156.578" stroke="#F0AF56" stroke-width="8" stroke-miterlimit="1.5" stroke-linecap="round" stroke-linejoin="round"/>
<path d="M287.389 25.9044C291.578 18.8152 295.942 11.8947 300.407 5" stroke="#F0AF56" stroke-width="9.84247" stroke-miterlimit="1.5" stroke-linecap="round" stroke-linejoin="round"/>
<path d="M298.148 40.6074C305.16 34.7124 312.993 30.1543 320.499 25.0483" stroke="#F0AF56" stroke-width="9.84247" stroke-miterlimit="1.5" stroke-linecap="round" stroke-linejoin="round"/>
<path d="M303.45 57.914C310.841 56.5126 318.584 55.9205 326 57.2046" stroke="#F0AF56" stroke-width="9.84247" stroke-miterlimit="1.5" stroke-linecap="round" stroke-linejoin="round"/>
</svg>
